<svg width="667" height="162" viewBox="0 0 667 162" fill="none" xmlns="http://www.w3.org/2000/svg">
<g clip-path="url(#clip0)">
<path d="M29.3906 43.4375V152H13.0078V43.4375H29.3906ZM60.9609 83.5156L78.6797 121.977L96.3281 83.5156H114.117L78.5391 156.711L43.2422 83.5156H60.9609ZM172.828 83.5156H188.719V152H172.828V144.828C166.312 150.922 159.305 153.969 151.805 153.969C142.336 153.969 134.508 150.547 128.32 143.703C122.18 136.719 119.109 128 119.109 117.547C119.109 107.281 122.18 98.7266 128.32 91.8828C134.461 85.0391 142.148 81.6172 151.383 81.6172C159.352 81.6172 166.5 84.8984 172.828 91.4609V83.5156ZM135.281 117.547C135.281 124.109 137.039 129.453 140.555 133.578C144.164 137.75 148.711 139.836 154.195 139.836C160.055 139.836 164.789 137.82 168.398 133.789C172.008 129.617 173.812 124.32 173.812 117.898C173.812 111.477 172.008 106.18 168.398 102.008C164.789 97.9297 160.102 95.8906 154.336 95.8906C148.898 95.8906 144.352 97.9531 140.695 102.078C137.086 106.25 135.281 111.406 135.281 117.547ZM208.688 83.5156H224.578V89.8438C230.109 84.3594 236.344 81.6172 243.281 81.6172C251.25 81.6172 257.461 84.125 261.914 89.1406C265.758 93.4062 267.68 100.367 267.68 110.023V152H251.789V113.75C251.789 107 250.852 102.336 248.977 99.7578C247.148 97.1328 243.82 95.8203 238.992 95.8203C233.742 95.8203 230.016 97.5547 227.812 101.023C225.656 104.445 224.578 110.422 224.578 118.953V152H208.688V83.5156ZM351.562 43.4375V136.602H383.484V152H335.18V43.4375H351.562ZM446.484 83.5156H462.375V152H446.484V144.828C439.969 150.922 432.961 153.969 425.461 153.969C415.992 153.969 408.164 150.547 401.977 143.703C395.836 136.719 392.766 128 392.766 117.547C392.766 107.281 395.836 98.7266 401.977 91.8828C408.117 85.0391 415.805 81.6172 425.039 81.6172C433.008 81.6172 440.156 84.8984 446.484 91.4609V83.5156ZM408.938 117.547C408.938 124.109 410.695 129.453 414.211 133.578C417.82 137.75 422.367 139.836 427.852 139.836C433.711 139.836 438.445 137.82 442.055 133.789C445.664 129.617 447.469 124.32 447.469 117.898C447.469 111.477 445.664 106.18 442.055 102.008C438.445 97.9297 433.758 95.8906 427.992 95.8906C422.555 95.8906 418.008 97.9531 414.352 102.078C410.742 106.25 408.938 111.406 408.938 117.547ZM482.344 83.5156H498.234V89.8438C503.766 84.3594 510 81.6172 516.938 81.6172C524.906 81.6172 531.117 84.125 535.57 89.1406C539.414 93.4062 541.336 100.367 541.336 110.023V152H525.445V113.75C525.445 107 524.508 102.336 522.633 99.7578C520.805 97.1328 517.477 95.8203 512.648 95.8203C507.398 95.8203 503.672 97.5547 501.469 101.023C499.312 104.445 498.234 110.422 498.234 118.953V152H482.344V83.5156ZM577.195 83.5156V152H561.375V83.5156H577.195ZM558.984 55.0391C558.984 52.2734 559.992 49.8828 562.008 47.8672C564.023 45.8516 566.438 44.8438 569.25 44.8438C572.109 44.8438 574.547 45.8516 576.562 47.8672C578.578 49.8359 579.586 52.25 579.586 55.1094C579.586 57.9688 578.578 60.4062 576.562 62.4219C574.594 64.4375 572.18 65.4453 569.32 65.4453C566.461 65.4453 564.023 64.4375 562.008 62.4219C559.992 60.4062 558.984 57.9453 558.984 55.0391ZM597.234 83.5156H613.125V89.8438C618.656 84.3594 624.891 81.6172 631.828 81.6172C639.797 81.6172 646.008 84.125 650.461 89.1406C654.305 93.4062 656.227 100.367 656.227 110.023V152H640.336V113.75C640.336 107 639.398 102.336 637.523 99.7578C635.695 97.1328 632.367 95.8203 627.539 95.8203C622.289 95.8203 618.562 97.5547 616.359 101.023C614.203 104.445 613.125 110.422 613.125 118.953V152H597.234V83.5156Z" fill="#2F80ED"/>
</g>
<defs>
<clipPath id="clip0">
<rect width="667" height="162" fill="white"/>
</clipPath>
</defs>
</svg>
